<?xml version="1.0" encoding="utf-8"?>
<svg viewBox="0 0 295 58.3" xmlns="http://www.w3.org/2000/svg">
  <rect width="295" height="1" style="" y="4.3"/>
  <rect y="14.3" width="295" height="1" style=""/>
  <rect y="24.3" width="295" height="1" style=""/>
  <rect y="34.3" width="295" height="1" style=""/>
  <rect y="44.3" width="295" height="1" style=""/>
  <rect y="54.3" width="295" height="1" style=""/>
  <ellipse cx="20" cy="4.3" rx="4" ry="4"/>
  <ellipse cx="30" cy="4.3" rx="4" ry="4"/>
  <ellipse cx="40" cy="4.3" rx="4" ry="4"/>
  <ellipse cx="40" cy="14.299" rx="4" ry="4"/>
  <ellipse cx="40" cy="24.3" rx="4" ry="4"/>
  <ellipse cx="40" cy="34.3" rx="4" ry="4"/>
  <ellipse cx="40" cy="44.3" rx="4" ry="4"/>
  <ellipse cx="40" cy="54.3" rx="4" ry="4"/>
  <ellipse cx="80" cy="4.3" rx="4" ry="4"/>
  <ellipse cx="90" cy="4.3" rx="4" ry="4"/>
  <ellipse cx="75" cy="14.3" rx="4" ry="4"/>
  <ellipse cx="70" cy="24.299" rx="4" ry="4"/>
  <ellipse cx="70" cy="34.3" rx="4" ry="4"/>
  <ellipse cx="75" cy="43.6" rx="4" ry="4"/>
  <ellipse cx="80" cy="54.3" rx="4" ry="4"/>
  <ellipse cx="90" cy="54.3" rx="4" ry="4"/>
  <ellipse cx="95" cy="44.3" rx="4" ry="4"/>
  <ellipse cx="100" cy="34.3" rx="4" ry="4"/>
  <ellipse cx="100" cy="24.299" rx="4" ry="4"/>
  <ellipse cx="95" cy="14.299" rx="4" ry="4"/>
  <ellipse cx="115" cy="54.3" rx="4" ry="4"/>
  <ellipse cx="115" cy="44.3" rx="4" ry="4"/>
  <ellipse cx="115" cy="34.3" rx="4" ry="4"/>
  <ellipse cx="115" cy="24.3" rx="4" ry="4"/>
  <ellipse cx="115" cy="14.3" rx="4" ry="4"/>
  <ellipse cx="115" cy="4.3" rx="4" ry="4"/>
  <ellipse cx="125" cy="24.299" rx="4" ry="4"/>
  <ellipse cx="125.6" cy="34.3" rx="4" ry="4"/>
  <ellipse cx="135" cy="34.3" rx="4" ry="4"/>
  <ellipse cx="135" cy="24.299" rx="4" ry="4"/>
  <ellipse cx="145" cy="4.3" rx="4" ry="4"/>
  <ellipse cx="145" cy="24.299" rx="4" ry="4"/>
  <ellipse cx="145" cy="34.3" rx="4" ry="4"/>
  <ellipse cx="145" cy="44.3" rx="4" ry="4"/>
  <ellipse cx="145" cy="54.3" rx="4" ry="4"/>
  <ellipse cx="145" cy="14.3" rx="4" ry="4"/>
  <ellipse cx="160" cy="4.3" rx="4" ry="4"/>
  <ellipse cx="160" cy="14.3" rx="4" ry="4"/>
  <ellipse cx="160" cy="24.299" rx="4" ry="4"/>
  <ellipse cx="160" cy="34.3" rx="4" ry="4"/>
  <ellipse cx="160" cy="44.3" rx="4" ry="4"/>
  <ellipse cx="160" cy="54.3" rx="4" ry="4"/>
  <ellipse cx="170" cy="44.3" rx="4" ry="4"/>
  <ellipse cx="175" cy="34.3" rx="4" ry="4"/>
  <ellipse cx="180" cy="24.3" rx="4" ry="4"/>
  <ellipse cx="185" cy="14.3" rx="4" ry="4"/>
  <ellipse cx="195" cy="4.3" rx="4" ry="4"/>
  <ellipse cx="195" cy="14.3" rx="4" ry="4"/>
  <ellipse cx="195" cy="24.299" rx="4" ry="4"/>
  <ellipse cx="195" cy="34.3" rx="4" ry="4"/>
  <ellipse cx="195" cy="44.3" rx="4" ry="4"/>
  <ellipse cx="195" cy="54.3" rx="4" ry="4"/>
  <ellipse cx="210" cy="4.3" rx="4" ry="4"/>
  <ellipse cx="210" cy="14.299" rx="4" ry="4"/>
  <ellipse cx="210" cy="24.299" rx="4" ry="4"/>
  <ellipse cx="210" cy="34.3" rx="4" ry="4"/>
  <ellipse cx="210" cy="44.3" rx="4" ry="4"/>
  <ellipse cx="210" cy="54.3" rx="4" ry="4"/>
  <ellipse cx="220" cy="24.299" rx="4" ry="4"/>
  <ellipse cx="225" cy="14.3" rx="4" ry="4"/>
  <ellipse cx="230" cy="4.3" rx="4" ry="4"/>
  <ellipse cx="220" cy="34.3" rx="4" ry="4"/>
  <ellipse cx="225" cy="44.3" rx="4" ry="4"/>
  <ellipse cx="230" cy="54.3" rx="4" ry="4"/>
  <ellipse cx="245" cy="54.3" rx="4" ry="4"/>
  <ellipse cx="248" cy="44.3" rx="4" ry="4"/>
  <ellipse cx="251" cy="34.3" rx="4" ry="4"/>
  <ellipse cx="254" cy="24.3" rx="4" ry="4"/>
  <ellipse cx="257" cy="14.3" rx="4" ry="4"/>
  <ellipse cx="260" cy="4" rx="4" ry="4"/>
  <ellipse cx="263" cy="14.3" rx="4" ry="4"/>
  <ellipse cx="266" cy="24.3" rx="4" ry="4"/>
  <ellipse cx="260" cy="34.3" rx="4" ry="4"/>
  <ellipse cx="272" cy="44.3" rx="4" ry="4"/>
  <ellipse cx="275" cy="54.3" rx="4" ry="4"/>
  <ellipse cx="50" cy="4.3" rx="4" ry="4"/>
  <ellipse cx="60" cy="4.299" rx="4" ry="4"/>
  <ellipse cx="269" cy="34.3" rx="4" ry="4"/>
</svg>